<svg  xmlns="http://www.w3.org/2000/svg" viewBox="0 0 570 570" fill="currenColor" height="80" width="80">
  <g>
    <path d="M423.81,150.31c11.64,14.15,21.3,28.85,28.07,45.31,10.76,26.16,13.79,53.67,13.89,81.64.01,4.18.71,7.52,3.55,10.88,6.11,7.22,8.94,15.91,9.02,25.36.09,10.83.22,21.67-.21,32.49-.88,21.95-15.71,38.51-37.4,42.29-1.63.28-3.25.62-5.14.98-1.86,11.3-7.15,20.65-16.7,27.19-12.49,8.55-25.89,9.42-39.23,2.71-13.52-6.81-21.3-18.32-21.49-33.55-.41-32.16-.14-64.32-.06-96.48.02-7.14-.33-14.41.8-21.41,3.02-18.61,18.48-31.55,37.24-32,18.57-.45,34.74,12.12,38.59,30.45.66,3.15,1.88,3.99,4.7,4.37,3.57.48,7.07,1.49,11.03,2.36.49-41.48-10.2-78.92-38.47-112.78-1.16,2-1.88,3.99-3.2,5.42-5.91,6.37-9.35,6.24-15.26-.08-21.71-23.21-48.19-38.27-79.32-44.21-43.4-8.29-82.92,1.45-118.05,28.23-6.58,5.02-12.47,10.99-18.38,16.84-4.97,4.92-8.8,5.26-13.61.28-1.6-1.66-2.94-3.57-4.74-5.78-27.58,33-38.28,70.43-37.91,111.97,4.84-.94,9.53-1.63,14.07-2.89,1.06-.29,1.87-2.42,2.33-3.85,6.22-19.38,23.51-31.35,43.75-30.19,17.2.98,32.07,15.71,32.18,32.92.26,40.49.27,80.98,0,121.46-.12,17.11-15.1,32.11-32.17,32.92-10.14.48-20.31.94-29.38-5.25-10.06-6.87-15.24-16.4-16.37-28.61-1.76-.37-3.5-.73-5.62-1.17,0,7.13-.19,14.02.04,20.9.38,11.49,1.04,22.97,1.56,34.45.57,12.53,10.44,23.22,22.89,23.39,26.48.36,52.96.11,79.76.11.51-1.61.98-3.15,1.49-4.67,3.14-9.45,11.86-16.13,21.78-16.21,18.83-.14,37.66-.2,56.49.02,12.74.15,22.57,10.36,22.75,23.08.05,3.5.02,7,.02,10.5-.03,13.6-9.65,23.86-23.34,24.08-18.49.3-37,.25-55.49.01-10.9-.14-19.22-6.88-22.46-17.33-.34-1.09-.73-2.17-1.18-3.52-22.05,0-44.03.06-66.01-.04-6.48-.03-13.04.07-19.41-.9-18.66-2.82-32.65-19.28-33.24-38.19-.61-19.48-1.31-38.95-2.21-58.42-.09-1.99-1.32-4.49-2.85-5.76-11.6-9.7-17.54-21.83-17.16-37.09.22-8.99-.02-17.99-.09-26.99-.08-10.34,2.68-19.8,9.33-27.78,2.68-3.22,3.26-6.55,3.28-10.53.13-25.91,2.58-51.49,11.68-76.04,6.91-18.63,17.34-35.15,30.73-51.39-2.04-1.59-4.16-2.94-5.91-4.67-5.64-5.53-5.69-8.94-.19-14.82,14.58-15.57,31.41-28.27,50.15-38.39,29.11-15.71,60.3-23.94,93.32-23.6,55.77.56,103.31,21.13,142.43,60.93,6.96,7.08,6.83,9.9-.23,16.97-1.29,1.29-2.68,2.49-4.44,4.11ZM198.86,329.5c0-19.33.13-38.65-.04-57.98-.13-14.52-12.16-23.48-26.25-19.86-13.11,3.37-21.35,14-21.38,28.36-.07,35.82,0,71.65.14,107.47.05,12.41,8.43,20.59,20.72,20.73,1.67.02,3.34-.13,5,0,13.54.99,22.13-10.05,21.9-22.22-.35-18.82-.09-37.65-.1-56.48ZM373.24,329.5c0,17.83-.05,35.66.02,53.49.06,14.6,10.15,25.13,24.01,25.21,12.97.08,23.47-10.67,23.53-24.68.15-35.49.12-70.99.01-106.48-.01-3.59-.56-7.36-1.75-10.74-3.75-10.7-14.53-16.88-25.76-15.22-11.1,1.64-19.8,11.43-19.98,23.43-.28,18.33-.07,36.66-.08,54.99ZM414.85,137.45c-71.36-72.75-188.76-70.86-257.02-.59,4.38,4.7,8.75,9.39,13.11,14.08,62.68-62.82,165.9-64.53,230.4.15,4.42-4.46,8.84-8.92,13.52-13.64ZM436.2,285.67v87.59c14.14-.93,26.08-12.22,26.71-25.94.55-11.95.55-23.96-.02-35.91-.64-13.53-13.19-25.27-26.7-25.74ZM135.87,285.58c-14.13,1.14-26.08,12.41-26.74,25.95-.59,11.95-.64,23.96-.11,35.91.6,13.5,13.12,25.19,26.85,25.76v-87.61ZM286.01,488.36c6.66,0,13.32,0,19.98,0,15.29,0,16.14-.85,16.07-15.99-.04-8.26-2.88-11.17-11.05-11.19-14.82-.03-29.65.37-44.45-.1-17.54-.56-17.01,4.59-16.61,17.75.19,6.44,3.18,9.42,9.59,9.49,8.82.1,17.65.02,26.47.04Z"/>
  </g>
</svg>