<?xml version="1.0" encoding="UTF-8"?>
<svg xmlns="http://www.w3.org/2000/svg" viewBox="0 0 19.48 19.48" fill="currentColor" width="20" height="20">
  <g>
    <g>
      <path d="M14.42,11.19s-1.46-.72-1.71-.81c-.1-.04-.21-.07-.33-.07-.19,0-.35.1-.48.28-.14.21-.57.71-.7.86-.02.02-.04.04-.06.04-.01,0-.23-.09-.3-.12-1.52-.66-2.68-2.25-2.84-2.52-.02-.04-.02-.06-.02-.06,0-.02.06-.07.08-.1.08-.08.16-.18.24-.28.04-.05.08-.09.11-.14.12-.14.17-.24.23-.37l.03-.06c.15-.29.02-.54-.02-.62-.03-.07-.63-1.51-.7-1.67-.15-.37-.36-.54-.64-.54-.03,0,0,0-.11,0-.13,0-.86.1-1.18.3-.34.21-.92.9-.92,2.1,0,1.08.69,2.11.98,2.5,0,0,.02.03.04.06,1.13,1.65,2.54,2.87,3.97,3.45,1.38.55,2.03.61,2.4.61h0c.16,0,.28-.01.39-.02h.07c.48-.05,1.52-.59,1.76-1.25.19-.52.24-1.09.11-1.29-.09-.14-.23-.21-.42-.3Z" />
      <path d="M9.91,0C4.64,0,.34,4.26.34,9.5c0,1.69.45,3.35,1.31,4.8L.01,19.15c-.03.09,0,.19.06.26.05.05.11.08.18.08.03,0,.05,0,.08-.01l5.06-1.61c1.38.74,2.95,1.13,4.53,1.13,5.28,0,9.57-4.26,9.57-9.5S15.19,0,9.91,0ZM9.91,17.01c-1.49,0-2.93-.43-4.17-1.24-.04-.03-.09-.04-.14-.04-.03,0-.05,0-.08.01l-2.53.8.82-2.41c.03-.08.01-.16-.04-.23-.94-1.29-1.44-2.81-1.44-4.41,0-4.15,3.4-7.52,7.58-7.52s7.58,3.37,7.58,7.52c0,4.15-3.4,7.52-7.58,7.52Z" />
    </g>
  </g>
</svg>