<?xml version="1.0" encoding="UTF-8"?>
<svg id="Layer_2" xmlns="http://www.w3.org/2000/svg" viewBox="0 0 49.66 43.39">
  <defs>
    <style>
      .cls-1 {
        fill: #faf9fd;
      }
    </style>
  </defs>
  <g id="Layer_1-2" data-name="Layer_1">
    <path class="cls-1" d="M21.09,0c13.11.02,25.22,8.91,27.98,19.28,2.88,10.83-5.02,22.5-16.28,23.88-10.1,1.24-18.36-2.56-25.36-9.6-.4-.41-.75-.88-1.21-1.22C.27,27.86-1.74,20.68,1.64,13.82,5.91,5.17,13.12.58,21.09,0ZM30.84,9.96c-6.48.46-10.55,3.43-13.38,8.22-3.16,5.34-2.33,10.26,2.21,14.47,1.13,1.04,2.22,1.27,3.63.77,5.86-2.05,9.73-6.13,12.15-11.71,1.88-4.33,1.46-6.88-1.86-10.15-.87-.86-2.18-1.27-2.75-1.59Z"/>
  </g>
</svg>