<?xml version="1.0" encoding="UTF-8"?>
<svg id="Layer_2" xmlns="http://www.w3.org/2000/svg" viewBox="0 0 34.21 29.58">
  <defs>
    <style>
      .cls-1 {
        fill: #faf9fd;
      }
    </style>
  </defs>
  <g id="Layer_1-2" data-name="Layer_1">
    <path class="cls-1" d="M29.63,23.25c.04.68.09,1.25.11,1.82.02.58-.25.78-.76.61-1.03-.34-1.98-.78-2.54-1.95-3.2.62-6.42,1.21-9.62,1.87-3.63.75-7.25,1.53-10.85,2.39-.67.16-1.23.8-1.88,1.14-.4.22-1,.56-1.29.4-.91-.51-1.76-1.18-2.54-1.9-.23-.21-.34-.87-.2-1.17.59-1.29.51-2.67.52-4.02.05-4.84.03-9.68.03-14.52,0-1.12.21-1.31,1.2-.89,1.11.47,2.02,1.15,2.6,2.37,1.14,2.38,2.41,4.69,3.7,7.19.1-.34.2-.54.22-.75.59-4.95,1.18-9.9,1.76-14.85.12-1,.34-1.2,1.22-.84,1.29.53,2.31,1.3,2.74,2.87.94,3.44,2.03,6.83,3.06,10.24.04.13.09.25.23.61.72-2.51,1.38-4.79,2.03-7.07.26-.9.55-1.8.76-2.71.16-.68.56-.83,1.09-.62,1.26.49,2.4,1.12,2.9,2.61,1.4,4.18,2.86,8.34,4.24,12.52.21.63.39.88,1.06.79,1.63-.22,3.07.28,4.25,1.51.78.82.69,1.35-.36,1.67-.74.22-1.52.3-2.28.43-.47.08-.95.14-1.43.22ZM17.75,21.39c-1.46-.64-2.01-1.84-2.35-3.26-.34-1.41-.81-2.78-1.23-4.17-.36-1.19-.73-2.38-1.16-3.78-.69,4.32-1.33,8.39-2,12.56,2.26-.45,4.5-.91,6.74-1.36ZM19.44,21.06c2.07-.36,3.99-.7,6.08-1.07-.94-3.31-1.84-6.49-2.74-9.67-.09.02-.18.04-.27.05-1,3.5-2.01,7.01-3.06,10.68ZM4.27,14.62c-.09.02-.18.05-.27.07v9.66c2.04-.47,4.04-.94,6.05-1.4-1.7-.76-2.7-2.05-3.44-3.72-.69-1.58-1.55-3.07-2.34-4.6Z"/>
  </g>
</svg>