<?xml version="1.0" encoding="UTF-8"?>
<svg id="Layer_2" xmlns="http://www.w3.org/2000/svg" viewBox="0 0 100.99 42.15">
  <defs>
    <style>
      .cls-1 {
        fill: #f9f9fd;
      }
    </style>
  </defs>
  <g id="Layer_1-2" data-name="Layer_1">
    <g>
      <path class="cls-1" d="M97.67,18.96c-1.09-1-2.29-1.89-3.51-2.73-3.84-2.64-6.32-5.46-2.9-10.31,1.05-1.49,2.58-4.2.15-5.55-2.1-1.17-4.16.66-5.12,2.64-2.99,6.21-4.72,4.37-6.79-.63-.99-2.4-3.99-2.85-4.81-.23-.41,1.3,1,3.15.62,3.68.32.34.63.7.93,1.08-2.12-.78-4.44-.8-4.44-.8-1.7-.14-3.42-.45-4.57-.37-9.68.69-12.53,4.28-10.61,13.48,2.19,10.49,8.57,13.63,18.2,8.88,2.09-1.03,5.07-1.84,5.89-3.58,4.15-8.82,8.45-4.01,13.03-.69,2.17,1.58,5.18,2.52,6.85.02,1.48-2.21-1.43-3.54-2.92-4.9ZM80.91,14.82c-.82,7.03-7.07,7.54-12.03,9.34-4.42,1.6-6.74-.78-7.66-4.96-1.22-6.43,1.25-9.34,7.31-8.71.34.06,4.19.79,3.63,2.56-.37,1.16-5.92-1.2-6.93,1.87-1.19,3.63.78,4.7.78,4.7,0,0,8.24.92,11.72-4.05.99-1.42,1.55-2.63,1.78-3.65.94.65,1.55,1.68,1.4,2.89Z"/>
      <path class="cls-1" d="M14.95,14.19c-3.24.46-1.84,3.71-1.58,5.83.74,5.96,3.07,11.73,2.44,18.75-5.82-5.73-8.44-12.31-11.12-18.88-.56-1.37-.89-3.76-3.35-2.77-1.73.7-1.42,2.39-1.06,3.88,1.26,5.15,2.38,10.35,3.86,15.44,1.47,5.05,1.73,5.45,5.89,4.84.41-.06-2.8-5.64-2.31-5.71.54-.08,4.82,5.87,5.42,6.02,5.52,1.45,7.4.19,7.02-5.49-.39-5.7-1.36-11.37-2.19-17.03-.3-2.06-.7-5.21-3.02-4.88Z"/>
      <path class="cls-1" d="M31.92,12.28c-4.06-1.65-6.88-.68-7.72,3.93-.71,3.93-.99,7.89-.37,11.87.44,2.56,1.52,4.87,3.17,6.81,3.9,4.58,10.67,4.01,13.2-1.03,3.36-6.69-1.25-18.72-8.29-21.58ZM35.72,32.66c-.78,1.28-2.04,1.27-3.37.71-3.92-1.66-4.54-5.28-5.4-9.23.22-2.52-2.4-6.81,1.36-7.97,3.91-1.21,6.2,2.63,7.64,6.15,1.42,3.48,1.83,6.97-.23,10.34Z"/>
    </g>
  </g>
</svg>