<?xml version="1.0" encoding="UTF-8"?>
<svg id="Layer_2" xmlns="http://www.w3.org/2000/svg" viewBox="0 0 58.07 65.33">
  <defs>
    <style>
      .cls-1 {
        fill: #faf9fd;
      }
    </style>
  </defs>
  <g id="Layer_1-2" data-name="Layer_1">
    <path class="cls-1" d="M0,23.09c4.82.93,9.64,1.84,14.46,2.78,1.69.33,3.67,1.43,4.97.88,1.25-.52,1.77-2.74,2.66-4.18,2.22-3.58,4.6-7.08,6.67-10.74,1.76-3.11,3.18-6.4,4.74-9.62,1.08-2.23,1.66-2.67,4.02-1.75,1.98.77,3.74,2.08,5.6,3.15,1.09.63,2.19,1.25,3.28,1.88,3.83,2.21,4.59,4.92,2.23,8.67-3.27,5.19-6.66,10.31-9.99,15.46-.52.8-1.01,1.61-1.57,2.52,3.47,1.49,6.87,2.77,10.11,4.4,3.12,1.57,6.07,3.49,9.09,5.27.27.16.61.33.74.59.4.8.72,1.65,1.08,2.48-.84.26-1.67.56-2.52.77-.28.07-.61-.12-.92-.19-.72,2.01-1.31,2.35-3.56,1.73-5.48-1.51-10.95-3.08-16.42-4.63-.6-.17-1.21-.31-2.06-.53-1.16,3.29-2.37,6.44-3.37,9.65-1.24,3.96-2.41,7.95-3.43,11.98-.38,1.51-1.19,1.88-2.48,1.64-2.7-.5-5.15-1.61-6.99-3.69-.53-.59-.92-1.64-.8-2.39.22-1.41-.38-2.1-1.43-2.79-2.65-1.73-2.59-2.61-2.46-5.76.17-4.28,2.64-7.76,3.41-11.78.11-.55.33-1.08.55-1.78-5.25-1.61-10.42-3.19-15.59-4.78,0-3.07,0-6.14,0-9.21Z"/>
  </g>
</svg>